<?xml version="1.0" standalone="no"?>
<!DOCTYPE svg PUBLIC "-//W3C//DTD SVG 20010904//EN"
 "http://www.w3.org/TR/2001/REC-SVG-20010904/DTD/svg10.dtd">
<svg version="1.0" xmlns="http://www.w3.org/2000/svg"
 width="1024.000000pt" height="1024.000000pt" viewBox="0 0 1024.000000 1024.000000"
 preserveAspectRatio="xMidYMid meet">

<g transform="translate(0.000000,1024.000000) scale(0.100000,-0.100000)"
fill="#000000" stroke="none">
<path d="M2487 9715 c-47 -16 -81 -46 -101 -90 -13 -28 -16 -81 -16 -318 l0
-286 -292 -3 c-322 -3 -328 -4 -381 -68 -42 -49 -50 -117 -46 -394 l4 -251
-302 -5 c-286 -5 -303 -6 -330 -26 -44 -33 -71 -80 -78 -137 -3 -29 -5 -1726
-3 -3772 3 -3439 4 -3722 20 -3750 18 -34 52 -67 86 -84 18 -9 688 -12 2849
-11 3161 1 2868 -7 2921 73 l27 40 5 296 5 296 300 5 c424 7 398 -19 405 410
l5 295 295 5 c326 6 335 7 382 72 l23 33 3 597 2 597 69 40 c152 89 355 268
473 417 251 317 394 702 399 1079 2 123 -7 153 -61 199 -70 59 -171 54 -236
-10 -39 -40 -54 -86 -54 -171 0 -133 -44 -347 -100 -489 -195 -489 -616 -828
-1145 -921 -138 -24 -426 -13 -560 20 -272 69 -487 185 -677 365 -145 139
-240 270 -327 452 -187 394 -186 851 4 1247 197 411 548 696 1003 811 101 25
119 27 332 26 219 0 228 -1 341 -31 65 -17 157 -48 205 -68 132 -55 155 -61
203 -47 47 15 96 53 116 93 22 42 22 3336 0 3378 -20 39 -69 78 -113 91 -25 7
-937 10 -2827 10 -2337 -1 -2796 -3 -2828 -15z m5433 -1736 c0 -1290 -1 -1391
-17 -1385 -34 13 -141 38 -238 54 l-100 17 -5 1122 -5 1121 -31 39 c-63 79
156 72 -2466 73 l-2338 0 0 175 0 175 2600 0 2600 0 0 -1391z m-710 -318 l0
-999 -82 -11 c-82 -12 -226 -43 -260 -56 -17 -7 -18 35 -18 781 0 748 -1 791
-19 830 -18 39 -54 73 -95 87 -10 4 -1077 7 -2372 7 l-2354 0 0 180 0 180
2600 0 2600 0 0 -999z m-710 -466 l0 -755 -27 -16 c-446 -269 -739 -658 -863
-1144 -65 -258 -67 -614 -5 -863 94 -372 284 -690 558 -935 88 -79 213 -172
290 -216 l47 -28 0 -1184 0 -1184 -2600 0 -2600 0 0 3540 0 3540 2600 0 2600
0 0 -755z m625 -4166 l85 -12 0 -719 0 -718 -180 0 -180 0 0 748 c0 412 2 751
5 753 2 3 45 -5 95 -18 49 -12 128 -28 175 -34z m795 -339 l0 -400 -177 2
-178 3 0 360 0 360 105 18 c58 10 134 26 170 36 36 10 68 19 73 20 4 0 7 -179
7 -399z"/>
<path d="M2145 6659 c-40 -12 -57 -27 -89 -73 -21 -31 -26 -51 -26 -96 0 -100
63 -164 173 -175 34 -3 760 -5 1612 -3 1529 3 1550 3 1584 23 19 11 48 37 65
58 26 33 31 47 31 96 0 74 -34 129 -97 160 l-44 21 -1590 -1 c-938 0 -1601 -5
-1619 -10z"/>
<path d="M2147 5555 c-75 -26 -118 -86 -119 -164 0 -82 52 -149 131 -171 26
-7 510 -9 1482 -8 1397 3 1445 4 1482 22 123 61 123 251 0 312 -37 18 -84 19
-1488 21 -1210 2 -1456 0 -1488 -12z"/>
<path d="M2147 4455 c-126 -45 -162 -204 -65 -291 63 -58 -43 -54 1531 -54
1563 0 1496 -2 1554 52 33 31 57 100 50 149 -7 55 -47 112 -94 135 -37 18 -84
19 -1488 21 -1210 2 -1456 0 -1488 -12z"/>
<path d="M2344 3361 l-211 -6 -37 -29 c-102 -77 -87 -240 27 -295 l43 -21
1594 0 1594 0 44 21 c105 51 131 179 55 270 -59 69 66 64 -1493 65 -773 0
-1500 -2 -1616 -5z"/>
<path d="M2122 2243 c-130 -64 -123 -267 10 -317 39 -15 192 -16 1649 -14
l1606 3 37 29 c42 32 76 95 76 141 0 64 -54 142 -113 164 -20 8 -519 11 -1630
11 -1463 0 -1605 -2 -1635 -17z"/>
<path d="M9065 6138 c-16 -6 -37 -16 -46 -22 -10 -6 -372 -341 -805 -743 -434
-402 -793 -733 -798 -735 -5 -2 -147 186 -315 416 -335 458 -335 458 -432 458
-91 0 -169 -77 -169 -169 0 -23 4 -53 9 -67 8 -19 651 -911 735 -1018 51 -64
153 -87 223 -50 17 9 148 125 290 258 142 132 321 298 398 369 736 680 1107
1030 1118 1053 48 95 11 199 -88 243 -45 21 -76 22 -120 7z"/>
</g>
</svg>
