<?xml version="1.0" standalone="no"?>
<!DOCTYPE svg PUBLIC "-//W3C//DTD SVG 20010904//EN"
 "http://www.w3.org/TR/2001/REC-SVG-20010904/DTD/svg10.dtd">
<svg version="1.0" xmlns="http://www.w3.org/2000/svg"
 width="1024.000000pt" height="1024.000000pt" viewBox="0 0 1024.000000 1024.000000"
 preserveAspectRatio="xMidYMid meet">

<g transform="translate(0.000000,1024.000000) scale(0.100000,-0.100000)"
fill="#000000" stroke="none">
<path d="M4120 9794 c-196 -18 -423 -66 -580 -124 -123 -45 -331 -149 -439
-220 -506 -333 -835 -835 -942 -1436 -20 -109 -23 -165 -24 -354 0 -246 12
-345 65 -547 194 -741 778 -1329 1514 -1523 218 -57 279 -65 556 -65 277 0
338 8 556 65 590 156 1089 567 1364 1125 375 761 263 1671 -288 2326 -331 393
-813 661 -1323 734 -106 15 -377 26 -459 19z m475 -454 c608 -120 1104 -556
1299 -1140 58 -174 77 -284 83 -482 6 -202 -5 -317 -47 -483 -77 -307 -223
-560 -454 -790 -147 -145 -269 -234 -441 -320 -211 -105 -398 -156 -642 -177
-298 -25 -620 40 -902 181 -190 96 -411 274 -550 445 -223 273 -358 614 -380
962 -20 320 35 597 173 879 259 526 756 874 1356 949 19 2 116 3 215 1 134 -2
208 -9 290 -25z"/>
<path d="M5126 8785 c-31 -11 -132 -106 -448 -422 l-408 -408 -232 232 c-152
151 -246 238 -270 248 -87 35 -200 1 -254 -77 -39 -55 -46 -156 -16 -214 26
-49 634 -655 682 -680 49 -25 134 -24 185 3 58 31 1010 988 1030 1035 34 84 9
189 -59 245 -63 51 -136 65 -210 38z"/>
<path d="M986 6365 c-21 -7 -54 -28 -73 -47 -69 -65 -68 -56 -71 -540 -2 -279
1 -458 7 -495 14 -75 51 -126 114 -158 111 -55 236 -12 288 100 17 36 19 70
19 383 l0 342 326 0 c201 0 342 4 368 11 54 13 110 59 136 110 25 47 26 137 4
185 -22 46 -85 100 -131 113 -61 17 -938 14 -987 -4z"/>
<path d="M6526 6365 c-60 -21 -116 -83 -132 -145 -21 -80 -4 -141 55 -200 58
-58 101 -70 250 -70 l111 0 0 -1920 0 -1920 -2770 0 -2769 1 -3 359 -3 358
-30 44 c-97 137 -306 117 -370 -34 -13 -32 -15 -107 -15 -516 l0 -479 23 -44
c13 -24 42 -57 66 -74 36 -25 54 -30 124 -35 l82 -5 5 -362 5 -361 30 -43 c17
-23 50 -53 74 -66 43 -22 52 -23 287 -23 l242 0 27 -82 c149 -456 581 -752
1055 -725 438 25 805 312 941 734 l23 73 1766 0 1766 0 23 -72 c110 -349 389
-615 740 -704 532 -136 1083 166 1252 686 l27 85 334 5 335 5 48 30 c36 22 57
45 77 84 l28 54 -2 1376 c-3 1539 3 1404 -75 1553 -68 131 -115 170 -508 430
l-360 238 -357 842 c-328 773 -361 846 -397 879 -22 19 -57 41 -79 47 -63 19
-1873 16 -1926 -3z m1744 -467 c13 -29 164 -386 337 -793 173 -407 324 -755
336 -772 14 -21 158 -123 417 -295 360 -240 397 -267 417 -307 l23 -44 0 -788
0 -788 -1280 0 -1280 0 0 1064 0 1064 538 3 c528 3 538 3 577 25 133 71 157
242 48 345 -61 59 -54 58 -633 58 l-530 0 0 640 0 640 504 0 504 0 22 -52z
m-6310 -4213 c0 -2 -20 -37 -44 -77 -52 -85 -97 -194 -122 -291 l-17 -68 -101
3 -101 3 -3 218 -2 217 195 0 c107 0 195 -2 195 -5z m1020 -21 c209 -59 385
-242 434 -454 64 -272 -67 -561 -311 -688 -99 -51 -182 -72 -293 -72 -161 0
-304 57 -421 168 -281 264 -258 711 48 942 153 116 359 155 543 104z m4560 22
c0 -3 -13 -25 -30 -49 -47 -70 -102 -193 -130 -292 l-26 -90 -1755 -3 -1754
-2 -22 85 c-24 94 -84 229 -132 299 -17 24 -31 47 -31 50 0 3 873 6 1940 6
1067 0 1940 -2 1940 -4z m1019 -22 c153 -40 308 -169 380 -316 77 -156 89
-309 37 -473 -63 -197 -235 -358 -441 -410 -75 -19 -212 -19 -294 0 -215 51
-405 241 -456 456 -33 140 -10 315 57 442 65 124 223 252 363 297 97 31 242
33 354 4z m1241 -189 l0 -215 -191 2 -191 3 -18 70 c-27 105 -82 226 -141 312
l-30 43 286 0 285 0 0 -215z"/>
<path d="M190 4667 c-19 -6 -53 -30 -75 -52 -99 -98 -78 -261 43 -332 l47 -28
1305 -3 c932 -2 1320 0 1357 8 36 8 65 23 97 51 113 99 89 276 -45 343 l-53
26 -1320 -1 c-939 -1 -1331 -4 -1356 -12z"/>
<path d="M628 3816 c-89 -32 -139 -94 -146 -182 -8 -101 55 -198 145 -223 58
-16 1782 -15 1837 1 56 17 121 84 136 140 26 95 -14 196 -98 245 l-47 28 -895
2 c-730 2 -902 0 -932 -11z"/>
</g>
</svg>
